<?xml version="1.0" encoding="UTF-8"?>
<svg width="512px" height="351px" viewBox="0 0 512 351" version="1.1" xmlns="http://www.w3.org/2000/svg" xmlns:xlink="http://www.w3.org/1999/xlink">
    <!-- Generator: Sketch 52 (66869) - http://www.bohemiancoding.com/sketch -->
    <title>tryhtml</title>
    <desc>Created with Sketch.</desc>
    <g id="Page-1" stroke="none" stroke-width="1" fill="none" fill-rule="evenodd">
        <g id="tryhtml" fill="#FFFFFF">
            <path d="M256.536502,236.382627 C179.477122,236.386007 102.417743,236.403749 25.358363,236.374178 C5.16308911,236.366574 0.00506930693,230.536026 0.00337953795,208.022389 C1.70611545e-14,148.03897 -0.00253465347,88.056396 0.00506930693,28.0729769 C0.0076039604,6.99817822 5.78323432,0.624369637 25.3313267,0.614231023 C117.268277,0.566917492 209.205228,0.593108911 301.143023,0.593108911 C363.324832,0.593108911 425.505795,0.577056106 487.687604,0.60240264 C508.980383,0.610851485 511.967894,3.95574917 511.969584,27.4300198 C511.972119,89.5095974 511.984792,151.59002 511.96029,213.669597 C511.952686,232.761452 508.794508,236.331089 491.148251,236.347142 C412.944053,236.418957 334.7407,236.379248 256.536502,236.382627 Z M378.209162,186.615551 C373.683116,186.352792 370.68969,186.028356 367.696264,186.026667 C309.735498,185.996251 251.772198,186.357861 193.817347,185.724198 C181.280106,185.587327 180.667564,192.333729 180.616871,202.810297 C180.563644,213.633267 180.854284,221.121479 194.142627,220.790284 C228.82429,219.924277 263.53637,220.502178 298.23662,220.501333 C321.878178,220.501333 345.52396,220.718469 369.157069,220.220832 C372.207947,220.15662 377.508752,216.705267 377.795168,214.261017 C378.841135,205.314535 378.209162,196.131485 378.209162,186.615551 Z M495.131036,140.769584 C460.762825,140.769584 427.109386,140.769584 393.068145,140.769584 C393.068145,151.878125 393.068145,162.12404 393.068145,172.952924 C427.375525,172.952924 461.012066,172.952924 495.131036,172.952924 C495.131036,161.829175 495.131036,151.594244 495.131036,140.769584 Z M18.1253069,173.125281 C46.2363036,173.125281 73.3892013,173.125281 101.08536,173.125281 C101.08536,161.884937 101.08536,151.364436 101.08536,140.866746 C72.9608449,140.866746 45.7978086,140.866746 18.1253069,140.866746 C18.1253069,151.710838 18.1253069,161.61204 18.1253069,173.125281 Z M83.0234191,126.079578 C83.0234191,114.562957 83.0234191,104.349149 83.0234191,93.703604 C60.9896766,93.703604 39.6732409,93.703604 18.4362244,93.703604 C18.4362244,105.076594 18.4362244,115.31237 18.4362244,126.079578 C40.0863894,126.079578 60.9001188,126.079578 83.0234191,126.079578 Z M495.129347,125.882719 C495.129347,114.467485 495.129347,104.261281 495.129347,93.5244884 C473.81629,93.5244884 453.222231,93.5244884 432.296132,93.5244884 C432.296132,104.698086 432.296132,114.920343 432.296132,125.882719 C453.310944,125.882719 473.659987,125.882719 495.129347,125.882719 Z M440.495736,219.735868 C440.495736,207.934521 440.495736,197.718178 440.495736,186.890139 C424.497003,186.890139 409.235855,186.890139 393.76771,186.890139 C393.76771,198.302838 393.76771,208.802218 393.76771,219.735868 C409.676884,219.735868 424.66767,219.735868 440.495736,219.735868 Z M455.170535,186.585135 C455.170535,196.402693 454.723591,204.740013 455.428224,212.95736 C455.655498,215.606917 458.809452,219.963987 460.800845,220.086495 C472.052172,220.7793 483.357571,220.421069 494.944317,220.421069 C494.944317,208.171934 494.944317,197.621861 494.944317,186.585135 C481.655129,186.585135 469.264053,186.585135 455.170535,186.585135 Z M18.1514983,220.501348 C24.6385215,220.501333 30.5924224,220.499644 36.5471683,220.501333 C59.8271155,220.507248 61.4239472,218.693281 58.024132,193.685545 C57.6490033,190.926152 54.425769,186.62569 52.3405941,186.492198 C41.135736,185.776581 29.8734257,186.154244 18.1514983,186.154244 C18.1514983,198.133861 18.1514983,208.394983 18.1514983,220.501348 Z M166.410983,187.05996 C152.706957,187.05996 140.079314,187.05996 127.417875,187.05996 C127.417875,198.426191 127.417875,208.723644 127.417875,219.358205 C140.778033,219.358205 153.404832,219.358205 166.410983,219.358205 C166.410983,208.242059 166.410983,198.269043 166.410983,187.05996 Z M72.7631419,219.539855 C85.7371881,219.539855 98.4256634,219.539855 111.370139,219.539855 C111.370139,208.191366 111.370139,197.603274 111.370139,186.830997 C98.0598284,186.830997 85.7093069,186.830997 72.7631419,186.830997 C72.7631419,197.553426 72.7631419,207.46899 72.7631419,219.539855 Z M338.715036,140.508515 C338.715036,152.273531 338.715036,162.481426 338.715036,173.252013 C351.935789,173.252013 364.336158,173.252013 377.484251,173.252013 C377.484251,162.206838 377.484251,151.62297 377.484251,140.508515 C364.245756,140.508515 351.849611,140.508515 338.715036,140.508515 Z M283.861756,173.834983 C291.10833,173.834983 297.128977,173.834983 303.149624,173.834983 C325.385294,173.836673 327.603116,171.08066 323.815498,146.720106 C323.437835,144.293597 320.572832,140.563432 318.736898,140.47134 C307.220277,139.895974 295.668172,140.179855 283.860911,140.179855 C283.861756,152.09864 283.861756,161.961822 283.861756,173.834983 Z M413.14429,92.5799076 C405.584264,92.5799076 399.197782,92.5799076 392.8113,92.5799076 C372.121769,92.5799076 369.524594,95.8707327 373.28602,118.985927 C373.739723,121.774891 377.046601,125.980726 379.213729,126.121822 C390.368739,126.845888 401.584581,126.457241 413.14429,126.457241 C413.14429,114.500436 413.14429,104.600079 413.14429,92.5799076 Z M18.2283828,78.3241719 C25.6692805,78.3241716 31.6966865,78.3241716 37.7240924,78.3241716 C59.6809505,78.3250165 61.4830891,76.1730957 58.0123036,51.9173069 C57.6202772,49.1781914 54.3843696,44.9512343 52.2890561,44.8177426 C41.128132,44.1088845 29.9097558,44.4840132 18.2283828,44.4840132 C18.2283828,56.3191551 18.2283828,66.5000132 18.2283828,78.3241719 Z M220.676224,44.3277096 C211.989122,44.3277096 204.443459,44.3217954 196.89864,44.3285545 C180.77402,44.3429175 180.769795,44.3454521 180.823868,62.3744422 C180.832317,65.2918284 180.089663,68.6468647 181.149149,71.0125413 C182.422389,73.8564224 185.147987,77.7513399 187.425795,77.9025743 C198.261439,78.6224158 209.158759,78.2244752 220.676224,78.2244752 C220.676224,66.6022442 220.676224,56.4027987 220.676224,44.3277096 Z M275.268436,44.3277073 C268.700304,44.3277096 262.745558,44.3277096 256.790812,44.3277096 C233.201637,44.3260198 232.303525,45.2722904 235.443116,70.7464026 C235.775155,73.442429 238.949386,77.7023366 240.980488,77.8282244 C252.186191,78.5235644 263.445967,78.1611089 275.268436,78.1611089 C275.268436,66.3960924 275.268436,56.1915776 275.268436,44.3277073 Z M495.169056,77.5612409 C495.169056,66.3791947 495.169056,56.137505 495.169056,45.1894917 C481.807208,45.1894917 469.122957,45.1894917 455.842218,45.1894917 C455.842218,56.3039472 455.842218,66.552396 455.842218,77.5612409 C468.961584,77.5612409 481.388145,77.5612409 495.169056,77.5612409 Z M195.457267,93.6393927 C181.552158,93.6393927 168.926205,93.6393927 156.100858,93.6393927 C156.100858,104.935498 156.100858,115.153531 156.100858,125.515195 C169.610561,125.515195 182.278759,125.515195 195.457267,125.515195 C195.457267,114.549439 195.457267,104.697241 195.457267,93.6393927 Z M210.46664,93.2777822 C210.46664,104.66429 210.46664,114.902601 210.46664,126.589888 C222.06437,126.589888 233.014073,126.949809 243.913083,126.290799 C246.131749,126.156462 249.774891,122.356172 249.981888,119.9567 C250.723696,111.35662 250.272528,102.632343 250.272528,93.2777822 C236.465426,93.2777822 224.065056,93.2777822 210.46664,93.2777822 Z M358.356911,93.2794719 C344.951129,93.2794719 332.61835,93.2794719 319.787934,93.2794719 C319.787934,104.515591 319.787934,115.042007 319.787934,125.930033 C333.001083,125.930033 345.343155,125.930033 358.356911,125.930033 C358.356911,115.008211 358.356911,104.775815 358.356911,93.2794719 Z M111.580515,77.6584026 C111.580515,66.1417822 111.580515,55.9060066 111.580515,45.3398812 C98.223736,45.3398812 85.6205941,45.3398812 72.894099,45.3398812 C72.894099,56.5793795 72.894099,66.7957228 72.894099,77.6584026 C85.9678416,77.6584026 98.3082244,77.6584026 111.580515,77.6584026 Z M166.235248,45.1641452 C152.509254,45.1641452 140.157888,45.1641452 127.667116,45.1641452 C127.667116,56.5413597 127.667116,67.064396 127.667116,77.4894257 C140.988409,77.4894257 153.330482,77.4894257 166.235248,77.4894257 C166.235248,66.4324224 166.235248,56.2110099 166.235248,45.1641452 Z M265.351182,93.015868 C265.351182,104.860304 265.351182,115.387564 265.351182,125.749228 C278.685993,125.749228 291.027221,125.749228 303.487578,125.749228 C303.487578,114.334838 303.487578,103.841373 303.487578,93.015868 C290.418904,93.015868 278.370007,93.015868 265.351182,93.015868 Z M329.46862,45.2427195 C316.904343,45.2427195 305.013439,45.2427195 292.713611,45.2427195 C292.713611,56.3825215 292.713611,66.6005545 292.713611,77.458165 C305.255076,77.458165 317.121479,77.458165 329.46862,77.458165 C329.46862,66.3099142 329.46862,56.0318944 329.46862,45.2427195 Z M440.743287,45.4699934 C426.850851,45.4699934 414.237571,45.4699934 401.855789,45.4699934 C401.855789,56.8336898 401.855789,67.0390495 401.855789,77.1624554 C415.352818,77.1624554 427.954271,77.1624554 440.743287,77.1624554 C440.743287,66.1155908 440.743287,56.2329769 440.743287,45.4699934 Z M229.793373,140.523723 C229.793373,152.251564 229.793373,162.510997 229.793373,172.812673 C242.515644,172.812673 254.432739,172.812673 266.445307,172.812673 C266.445307,161.559657 266.445307,151.338244 266.445307,140.523723 C254.030574,140.523723 242.388066,140.523723 229.793373,140.523723 Z M383.825954,45.1717492 C370.824871,45.1717492 359.230521,45.1717492 347.556752,45.1717492 C347.556752,56.5599472 347.556752,67.0846733 347.556752,77.4750627 C360.153135,77.4750627 371.744106,77.4750627 383.825954,77.4750627 C383.825954,66.3944026 383.825954,56.1645413 383.825954,45.1717492 Z M138.469809,93.315802 C125.755987,93.315802 114.181914,93.315802 102.155828,93.315802 C102.155828,104.566284 102.155828,115.069888 102.155828,125.883564 C114.659274,125.883564 126.231657,125.883564 138.469809,125.883564 C138.469809,114.929637 138.469809,104.713294 138.469809,93.315802 Z M175.417452,172.968977 C188.441347,172.968977 200.005281,172.968977 211.652013,172.968977 C211.652013,161.558812 211.652013,151.042535 211.652013,140.76705 C199.067459,140.76705 187.484937,140.76705 175.417452,140.76705 C175.417452,151.829967 175.417452,162.037017 175.417452,172.968977 Z M157.543076,140.784792 C145.061597,140.784792 133.223076,140.784792 121.302601,140.784792 C121.302601,152.175525 121.302601,162.673215 121.302601,172.986719 C133.931089,172.986719 145.5153,172.986719 157.543076,172.986719 C157.543076,161.927182 157.543076,151.720132 157.543076,140.784792 Z" id="keyboard" fill-rule="nonzero"></path>
            <g id="@tryhtml" transform="translate(37.174917, 271.207921)" font-family="HiraKakuStdN-W8, Hiragino Kaku Gothic StdN" font-size="71.8151815" font-weight="600">
                <text id="@tryHTML">
                    <tspan x="0" y="63">@tryHTML</tspan>
                </text>
            </g>
        </g>
    </g>
</svg>